<?xml version="1.0" standalone="no"?>
<!DOCTYPE svg PUBLIC "-//W3C//DTD SVG 20010904//EN"
 "http://www.w3.org/TR/2001/REC-SVG-20010904/DTD/svg10.dtd">
<svg version="1.0" xmlns="http://www.w3.org/2000/svg"
 width="1500.000000pt" height="1500.000000pt" viewBox="0 0 1500.000000 1500.000000"
 preserveAspectRatio="xMidYMid meet">
<metadata>
Created by potrace 1.10, written by Peter Selinger 2001-2011
</metadata>
<g transform="translate(0.000000,1500.000000) scale(0.100000,-0.100000)"
fill="#000000" stroke="none">
<path d="M6335 14985 c-8 -12 -39 -17 -140 -21 -71 -3 -157 -10 -190 -15 -33
-5 -94 -14 -135 -19 -41 -5 -118 -16 -170 -24 -52 -8 -142 -22 -200 -31 -177
-28 -446 -90 -605 -140 -22 -7 -67 -20 -100 -30 -33 -10 -89 -28 -125 -41 -36
-12 -131 -45 -211 -73 -81 -28 -177 -64 -214 -81 -37 -16 -71 -30 -76 -30 -5
0 -41 -15 -81 -34 -40 -19 -124 -57 -186 -85 -222 -100 -577 -292 -767 -415
-212 -138 -369 -247 -485 -337 -41 -32 -112 -87 -158 -123 -84 -65 -158 -130
-375 -331 -262 -241 -625 -651 -827 -935 -30 -41 -77 -106 -105 -145 -28 -38
-68 -97 -89 -130 -20 -33 -59 -94 -86 -135 -44 -68 -86 -139 -158 -270 -14
-25 -28 -50 -33 -55 -4 -6 -42 -76 -82 -155 -66 -127 -99 -197 -188 -400 -11
-25 -26 -58 -34 -75 -33 -71 -111 -281 -156 -415 -46 -140 -59 -180 -81 -245
-5 -16 -14 -46 -18 -65 -4 -19 -13 -48 -18 -65 -22 -65 -41 -134 -57 -210 -9
-44 -21 -93 -25 -110 -8 -26 -31 -146 -70 -350 -8 -46 -23 -148 -50 -350 -48
-351 -48 -1257 0 -1610 6 -44 15 -116 21 -160 6 -44 16 -116 24 -160 8 -44 19
-109 25 -145 21 -125 86 -398 125 -530 9 -30 20 -71 24 -90 25 -104 206 -617
255 -725 8 -16 23 -50 34 -75 53 -120 219 -460 256 -525 12 -22 49 -87 81
-145 113 -202 332 -530 508 -760 243 -317 611 -709 902 -962 455 -394 891
-686 1435 -958 167 -84 350 -170 361 -170 6 0 23 -6 37 -14 90 -46 523 -204
622 -226 19 -4 50 -13 68 -19 82 -28 103 -34 192 -58 348 -93 814 -171 1155
-193 83 -6 197 -15 255 -20 138 -13 516 -13 655 0 61 6 173 15 250 20 225 16
573 66 860 124 112 23 380 92 403 105 11 6 30 11 41 11 11 0 35 6 53 14 18 8
60 22 93 31 153 43 500 170 577 211 14 8 32 14 39 14 13 0 533 256 639 315
231 129 477 286 673 429 106 77 361 279 417 330 19 17 82 72 140 123 100 87
224 210 430 428 278 293 501 583 772 1005 62 97 84 133 128 215 24 44 51 91
60 105 21 30 197 385 258 520 23 52 49 109 57 125 33 70 107 273 165 450 34
105 68 206 75 225 12 33 23 74 45 160 5 19 17 67 28 105 28 100 68 275 87 380
9 50 20 113 25 140 8 46 23 152 50 350 6 44 15 145 20 225 5 80 14 204 19 275
13 169 13 512 0 645 -6 58 -14 166 -19 240 -8 137 -27 298 -55 470 -8 52 -20
122 -25 155 -9 55 -53 273 -65 320 -2 11 -14 58 -25 105 -11 47 -29 117 -41
155 -11 39 -24 86 -29 105 -4 19 -13 49 -19 65 -6 17 -38 113 -72 215 -33 102
-74 219 -91 260 -51 127 -99 242 -126 300 -13 30 -30 69 -38 85 -33 78 -177
366 -185 371 -5 3 -9 12 -9 21 0 9 -6 24 -14 32 -7 9 -25 36 -38 61 -78 141
-94 170 -123 215 -178 279 -255 387 -484 686 -199 259 -523 597 -880 917 -30
27 -177 146 -299 241 -187 147 -526 373 -712 476 -58 31 -116 65 -130 74 -38
26 -311 163 -430 216 -58 26 -138 62 -178 81 -40 19 -77 34 -82 34 -6 0 -18 4
-28 10 -46 26 -431 166 -562 205 -25 7 -70 20 -100 29 -30 9 -69 21 -86 25
-18 5 -36 11 -42 15 -6 3 -30 10 -54 15 -24 5 -113 25 -198 44 -144 33 -201
43 -465 83 -261 40 -311 46 -463 54 -164 10 -187 14 -177 31 4 5 -149 9 -392
9 -346 0 -399 -2 -408 -15z m520 -4545 c150 -9 298 -29 390 -52 22 -5 60 -14
85 -19 125 -26 384 -131 490 -198 292 -184 453 -431 521 -798 18 -102 20 -139
15 -278 -6 -149 -19 -247 -44 -320 -6 -16 -13 -46 -16 -65 -11 -68 -110 -263
-183 -360 -196 -261 -505 -472 -793 -541 -52 -12 -99 -26 -104 -30 -5 -4 27
-43 71 -86 71 -70 166 -189 323 -408 30 -42 116 -159 190 -259 74 -101 210
-286 302 -412 93 -126 254 -346 358 -489 105 -143 203 -276 218 -295 64 -83
94 -132 84 -142 -12 -12 -624 -11 -657 2 -49 19 -105 64 -145 116 -46 62 -82
112 -201 275 -225 312 -341 471 -415 573 -258 354 -361 496 -389 536 -276 389
-307 424 -410 459 -51 17 -602 28 -625 12 -13 -9 -15 -132 -17 -992 -2 -540
-5 -984 -7 -986 -2 -3 -143 -5 -312 -4 -240 0 -309 3 -316 13 -12 20 -10 4715
2 4739 10 19 29 19 718 19 389 0 779 -4 867 -10z"/>
<path d="M5906 9908 c-11 -41 -7 -1715 4 -1744 l11 -27 467 6 c389 4 477 8
527 22 33 9 85 23 115 31 52 14 96 30 165 59 247 105 415 286 486 522 73 243
55 516 -49 723 -55 111 -226 263 -352 314 -251 101 -357 114 -971 115 l-397 1
-6 -22z"/>
</g>
</svg>
